<?xml version="1.0" ?><svg id="Layer_1" style="enable-background:new 0 0 32 32;fill:#fff;" version="1.1" viewBox="0 0 32 32" xml:space="preserve" xmlns="http://www.w3.org/2000/svg" xmlns:xlink="http://www.w3.org/1999/xlink"><style type="text/css">
	.st0{clip-path:url(#SVGID_2_);}
	.st1{clip-path:url(#SVGID_4_);}
</style><g><g><path d="M16,31C7.7290039,31,1,24.2714844,1,16S7.7290039,1,16,1s15,6.7285156,15,15S24.2709961,31,16,31z M16,3    C8.831543,3,3,8.8320313,3,16s5.831543,13,13,13s13-5.8320313,13-13S23.168457,3,16,3z M16,21c-2.7568359,0-5-2.2431641-5-5    s2.2431641-5,5-5s5,2.2431641,5,5S18.7568359,21,16,21z M16,13c-1.6542969,0-3,1.3457031-3,3s1.3457031,3,3,3s3-1.3457031,3-3    S17.6542969,13,16,13z"/></g><g><path d="M16,26c-0.5522461,0-1-0.4472656-1-1s0.4477539-1,1-1c4.4111328,0,8-3.5888672,8-8c0-0.5527344,0.4477539-1,1-1    s1,0.4472656,1,1C26,21.5136719,21.5141602,26,16,26z M7,17c-0.5522461,0-1-0.4472656-1-1c0-5.5136719,4.4858398-10,10-10    c0.5522461,0,1,0.4472656,1,1s-0.4477539,1-1,1c-4.4111328,0-8,3.5888672-8,8C8,16.5527344,7.5522461,17,7,17z"/></g></g></svg>